<svg xmlns="http://www.w3.org/2000/svg" xmlns:xlink="http://www.w3.org/1999/xlink" width="500" zoomAndPan="magnify" viewBox="0 0 375 374.999991" height="500" preserveAspectRatio="xMidYMid meet" version="1.2"><defs/><g id="bd933d8b17"><g style="fill:#ffffff;fill-opacity:1;"><g transform="translate(-1.240509, 206.453247)"><path style="stroke:none" d="M 13.140625 -104.375 L 45.625 -104.375 C 60.425781 -104.375 71.171875 -102.269531 77.859375 -98.0625 C 84.546875 -93.851562 87.890625 -87.15625 87.890625 -77.96875 C 87.890625 -71.726562 86.425781 -66.609375 83.5 -62.609375 C 80.570312 -58.609375 76.679688 -56.207031 71.828125 -55.40625 L 71.828125 -54.6875 C 78.441406 -53.207031 83.210938 -50.445312 86.140625 -46.40625 C 89.066406 -42.363281 90.53125 -36.984375 90.53125 -30.265625 C 90.53125 -20.753906 87.085938 -13.332031 80.203125 -8 C 73.328125 -2.664062 63.988281 0 52.1875 0 L 13.140625 0 Z M 35.265625 -63.046875 L 48.125 -63.046875 C 54.113281 -63.046875 58.453125 -63.972656 61.140625 -65.828125 C 63.835938 -67.679688 65.1875 -70.75 65.1875 -75.03125 C 65.1875 -79.03125 63.722656 -81.898438 60.796875 -83.640625 C 57.867188 -85.378906 53.238281 -86.25 46.90625 -86.25 L 35.265625 -86.25 Z M 35.265625 -45.484375 L 35.265625 -18.28125 L 49.6875 -18.28125 C 55.78125 -18.28125 60.28125 -19.445312 63.1875 -21.78125 C 66.09375 -24.113281 67.546875 -27.679688 67.546875 -32.484375 C 67.546875 -41.148438 61.359375 -45.484375 48.984375 -45.484375 Z M 35.265625 -45.484375 "/></g></g><g style="fill:#ffffff;fill-opacity:1;"><g transform="translate(96.997583, 206.453247)"><path style="stroke:none" d="M 57.328125 0 L 32.203125 -81.890625 L 31.5625 -81.890625 C 32.457031 -65.234375 32.90625 -54.117188 32.90625 -48.546875 L 32.90625 0 L 13.140625 0 L 13.140625 -104.375 L 43.265625 -104.375 L 67.96875 -24.5625 L 68.390625 -24.5625 L 94.59375 -104.375 L 124.734375 -104.375 L 124.734375 0 L 104.09375 0 L 104.09375 -49.40625 C 104.09375 -51.738281 104.128906 -54.425781 104.203125 -57.46875 C 104.273438 -60.519531 104.597656 -68.613281 105.171875 -81.75 L 104.53125 -81.75 L 77.609375 0 Z M 57.328125 0 "/></g></g><g style="fill:#ffffff;fill-opacity:1;"><g transform="translate(234.859326, 206.453247)"><path style="stroke:none" d="M 114.796875 0 L 89.609375 0 L 75.46875 -54.828125 C 74.945312 -56.785156 74.050781 -60.820312 72.78125 -66.9375 C 71.519531 -73.050781 70.796875 -77.15625 70.609375 -79.25 C 70.328125 -76.675781 69.613281 -72.546875 68.46875 -66.859375 C 67.320312 -61.171875 66.441406 -57.113281 65.828125 -54.6875 L 51.765625 0 L 26.625 0 L 0 -104.375 L 21.78125 -104.375 L 35.125 -47.40625 C 37.457031 -36.882812 39.148438 -27.769531 40.203125 -20.0625 C 40.484375 -22.769531 41.132812 -26.96875 42.15625 -32.65625 C 43.175781 -38.351562 44.140625 -42.769531 45.046875 -45.90625 L 60.265625 -104.375 L 81.171875 -104.375 L 96.390625 -45.90625 C 97.054688 -43.289062 97.882812 -39.289062 98.875 -33.90625 C 99.875 -28.53125 100.640625 -23.914062 101.171875 -20.0625 C 101.640625 -23.769531 102.394531 -28.394531 103.4375 -33.9375 C 104.488281 -39.488281 105.445312 -43.976562 106.3125 -47.40625 L 119.59375 -104.375 L 141.359375 -104.375 Z M 114.796875 0 "/></g></g><g style="fill:#ffffff;fill-opacity:1;"><g transform="translate(62.767299, 299.453241)"><path style="stroke:none" d="M 28.765625 -40.046875 C 28.765625 -32.148438 30.0625 -26.175781 32.65625 -22.125 C 35.257812 -18.082031 39.488281 -16.0625 45.34375 -16.0625 C 51.144531 -16.0625 55.316406 -18.070312 57.859375 -22.09375 C 60.410156 -26.113281 61.6875 -32.097656 61.6875 -40.046875 C 61.6875 -47.953125 60.398438 -53.878906 57.828125 -57.828125 C 55.253906 -61.773438 51.039062 -63.75 45.1875 -63.75 C 39.382812 -63.75 35.195312 -61.785156 32.625 -57.859375 C 30.050781 -53.929688 28.765625 -47.992188 28.765625 -40.046875 Z M 83.96875 -40.046875 C 83.96875 -27.054688 80.539062 -16.894531 73.6875 -9.5625 C 66.832031 -2.238281 57.285156 1.421875 45.046875 1.421875 C 37.390625 1.421875 30.632812 -0.253906 24.78125 -3.609375 C 18.925781 -6.960938 14.425781 -11.78125 11.28125 -18.0625 C 8.132812 -24.34375 6.5625 -31.671875 6.5625 -40.046875 C 6.5625 -53.085938 9.960938 -63.222656 16.765625 -70.453125 C 23.578125 -77.691406 33.148438 -81.3125 45.484375 -81.3125 C 53.140625 -81.3125 59.894531 -79.644531 65.75 -76.3125 C 71.601562 -72.988281 76.101562 -68.207031 79.25 -61.96875 C 82.394531 -55.738281 83.96875 -48.429688 83.96875 -40.046875 Z M 83.96875 -40.046875 "/></g></g><g style="fill:#ffffff;fill-opacity:1;"><g transform="translate(153.294844, 299.453241)"><path style="stroke:none" d="M 55.96875 -81.3125 C 58.925781 -81.3125 61.378906 -81.097656 63.328125 -80.671875 L 61.6875 -60.265625 C 59.925781 -60.734375 57.785156 -60.96875 55.265625 -60.96875 C 48.316406 -60.96875 42.898438 -59.179688 39.015625 -55.609375 C 35.140625 -52.046875 33.203125 -47.050781 33.203125 -40.625 L 33.203125 0 L 11.421875 0 L 11.421875 -79.828125 L 27.921875 -79.828125 L 31.125 -66.390625 L 32.203125 -66.390625 C 34.671875 -70.867188 38.007812 -74.472656 42.21875 -77.203125 C 46.4375 -79.941406 51.019531 -81.3125 55.96875 -81.3125 Z M 55.96875 -81.3125 "/></g></g><g style="fill:#ffffff;fill-opacity:1;"><g transform="translate(219.691228, 299.453241)"><path style="stroke:none" d="M 36.703125 1.421875 C 27.316406 1.421875 19.945312 -2.21875 14.59375 -9.5 C 9.238281 -16.78125 6.5625 -26.867188 6.5625 -39.765625 C 6.5625 -52.859375 9.285156 -63.054688 14.734375 -70.359375 C 20.191406 -77.660156 27.703125 -81.3125 37.265625 -81.3125 C 47.304688 -81.3125 54.972656 -77.410156 60.265625 -69.609375 L 60.96875 -69.609375 C 59.875 -75.554688 59.328125 -80.863281 59.328125 -85.53125 L 59.328125 -111.09375 L 81.171875 -111.09375 L 81.171875 0 L 64.46875 0 L 60.265625 -10.359375 L 59.328125 -10.359375 C 54.378906 -2.503906 46.835938 1.421875 36.703125 1.421875 Z M 44.34375 -15.921875 C 49.90625 -15.921875 53.984375 -17.535156 56.578125 -20.765625 C 59.171875 -24.003906 60.585938 -29.503906 60.828125 -37.265625 L 60.828125 -39.625 C 60.828125 -48.1875 59.503906 -54.320312 56.859375 -58.03125 C 54.222656 -61.75 49.929688 -63.609375 43.984375 -63.609375 C 39.128906 -63.609375 35.351562 -61.550781 32.65625 -57.4375 C 29.96875 -53.320312 28.625 -47.335938 28.625 -39.484375 C 28.625 -31.628906 29.976562 -25.738281 32.6875 -21.8125 C 35.40625 -17.882812 39.289062 -15.921875 44.34375 -15.921875 Z M 44.34375 -15.921875 "/></g></g></g></svg>